<mxfile host="www.draw.io" modified="2020-01-13T06:39:46.463Z" agent="Mozilla/5.0 (Windows NT 10.0; Win64; x64; rv:72.0) Gecko/20100101 Firefox/72.0" etag="ITxmHk3x0U0p46D12TRK" version="12.5.1" type="github">
  <diagram id="07fea595-8f29-1299-0266-81d95cde20df" name="Page-1">
    <mxGraphModel dx="853" dy="453" grid="1" gridSize="10" guides="1" tooltips="1" connect="1" arrows="1" fold="1" page="1" pageScale="1" pageWidth="1169" pageHeight="827" background="#ffffff" math="0" shadow="0">
      <root>
        <mxCell id="0"/>
        <mxCell id="1" parent="0"/>
        <mxCell id="n59VNbHN8dgJypt79uBZ-806" value="" style="whiteSpace=wrap;fillColor=#ffe6cc;gradientDirection=east;strokeColor=#d79b00;html=1;" parent="1" vertex="1">
          <mxGeometry x="160" y="600" width="40" height="160" as="geometry"/>
        </mxCell>
        <mxCell id="n59VNbHN8dgJypt79uBZ-807" value="" style="whiteSpace=wrap;fillColor=#ffe6cc;gradientDirection=east;strokeColor=#d79b00;html=1;" parent="1" vertex="1">
          <mxGeometry x="200" y="640" width="40" height="120" as="geometry"/>
        </mxCell>
        <mxCell id="n59VNbHN8dgJypt79uBZ-805" value="" style="whiteSpace=wrap;fillColor=#ffe6cc;gradientDirection=east;strokeColor=#d79b00;html=1;" parent="1" vertex="1">
          <mxGeometry x="120" y="640" width="40" height="120" as="geometry"/>
        </mxCell>
        <mxCell id="n59VNbHN8dgJypt79uBZ-752" value="" style="whiteSpace=wrap;fillColor=#ffe6cc;gradientDirection=east;strokeColor=#d79b00;html=1;" parent="1" vertex="1">
          <mxGeometry x="80" y="640" width="40" height="120" as="geometry"/>
        </mxCell>
        <mxCell id="n59VNbHN8dgJypt79uBZ-775" value="&lt;font face=&quot;Comic Sans MS&quot;&gt;1&lt;/font&gt;" style="text;spacingTop=-5;align=center;verticalAlign=middle;fontStyle=0;html=1;fontSize=18;points=[]" parent="1" vertex="1">
          <mxGeometry x="49" y="700" width="30" height="40" as="geometry"/>
        </mxCell>
        <mxCell id="n59VNbHN8dgJypt79uBZ-784" value="2" style="text;spacingTop=-5;align=center;verticalAlign=middle;fontStyle=0;html=1;fontSize=18;points=[];fontFamily=Comic Sans MS;" parent="1" vertex="1">
          <mxGeometry x="49" y="660" width="30" height="40" as="geometry"/>
        </mxCell>
        <mxCell id="n59VNbHN8dgJypt79uBZ-786" value="4" style="text;spacingTop=-5;align=center;verticalAlign=middle;fontStyle=0;html=1;fontSize=18;points=[];fontFamily=Comic Sans MS;" parent="1" vertex="1">
          <mxGeometry x="49" y="580" width="30" height="40" as="geometry"/>
        </mxCell>
        <mxCell id="n59VNbHN8dgJypt79uBZ-787" value="5" style="text;spacingTop=-5;align=center;verticalAlign=middle;fontStyle=0;html=1;fontSize=18;points=[];fontFamily=Comic Sans MS;" parent="1" vertex="1">
          <mxGeometry x="49" y="540" width="30" height="40" as="geometry"/>
        </mxCell>
        <mxCell id="n59VNbHN8dgJypt79uBZ-790" value="0" style="text;spacingTop=-5;align=center;verticalAlign=middle;fontStyle=0;html=1;fontSize=18;points=[];fontFamily=Comic Sans MS;" parent="1" vertex="1">
          <mxGeometry x="54" y="750" width="30" height="40" as="geometry"/>
        </mxCell>
        <mxCell id="n59VNbHN8dgJypt79uBZ-792" value="1" style="text;spacingTop=-5;align=center;verticalAlign=middle;fontStyle=0;html=1;fontSize=18;points=[];fontFamily=Comic Sans MS;" parent="1" vertex="1">
          <mxGeometry x="104" y="760" width="30" height="40" as="geometry"/>
        </mxCell>
        <mxCell id="n59VNbHN8dgJypt79uBZ-793" value="2" style="text;spacingTop=-5;align=center;verticalAlign=middle;fontStyle=0;html=1;fontSize=18;points=[];fontFamily=Comic Sans MS;" parent="1" vertex="1">
          <mxGeometry x="145" y="760" width="30" height="40" as="geometry"/>
        </mxCell>
        <mxCell id="n59VNbHN8dgJypt79uBZ-794" value="3" style="text;spacingTop=-5;align=center;verticalAlign=middle;fontStyle=0;html=1;fontSize=18;points=[];fontFamily=Comic Sans MS;" parent="1" vertex="1">
          <mxGeometry x="185" y="760" width="30" height="40" as="geometry"/>
        </mxCell>
        <mxCell id="n59VNbHN8dgJypt79uBZ-795" value="4" style="text;spacingTop=-5;align=center;verticalAlign=middle;fontStyle=0;html=1;fontSize=18;points=[];fontFamily=Comic Sans MS;" parent="1" vertex="1">
          <mxGeometry x="224" y="760" width="30" height="40" as="geometry"/>
        </mxCell>
        <mxCell id="n59VNbHN8dgJypt79uBZ-796" value="5" style="text;spacingTop=-5;align=center;verticalAlign=middle;fontStyle=0;html=1;fontSize=18;points=[];fontFamily=Comic Sans MS;" parent="1" vertex="1">
          <mxGeometry x="264" y="760" width="30" height="40" as="geometry"/>
        </mxCell>
        <mxCell id="lh64rZ8sjO6bwS-aEZiO-3" value="" style="rounded=0;whiteSpace=wrap;html=1;fillColor=#d5e8d4;strokeColor=none;opacity=80;" vertex="1" parent="1">
          <mxGeometry x="80" y="640" width="160" height="120" as="geometry"/>
        </mxCell>
        <mxCell id="n59VNbHN8dgJypt79uBZ-785" value="3" style="text;spacingTop=-5;align=center;verticalAlign=middle;fontStyle=0;html=1;fontSize=18;points=[];fontFamily=Comic Sans MS;" parent="1" vertex="1">
          <mxGeometry x="49" y="620" width="30" height="40" as="geometry"/>
        </mxCell>
        <mxCell id="n59VNbHN8dgJypt79uBZ-763" value="" style="edgeStyle=none;html=1;fontColor=#000000;strokeWidth=3;strokeColor=#000000;" parent="1" edge="1">
          <mxGeometry width="100" height="100" relative="1" as="geometry">
            <mxPoint x="81" y="760" as="sourcePoint"/>
            <mxPoint x="320" y="760" as="targetPoint"/>
          </mxGeometry>
        </mxCell>
        <mxCell id="n59VNbHN8dgJypt79uBZ-756" value="" style="edgeStyle=none;html=1;fontColor=#000000;strokeWidth=3;strokeColor=#000000;" parent="1" edge="1">
          <mxGeometry width="100" height="100" relative="1" as="geometry">
            <mxPoint x="81" y="760" as="sourcePoint"/>
            <mxPoint x="80" y="520" as="targetPoint"/>
          </mxGeometry>
        </mxCell>
      </root>
    </mxGraphModel>
  </diagram>
</mxfile>
